<svg xmlns="http://www.w3.org/2000/svg" width="186" height="48" viewBox="0 0 186 48" fill="none"><path d="M33.8643 41.28H15.1071C11.7612 41.28 9.02371 38.5516 9.02371 35.2169V24.3537L22.5593 38.0463C24.8406 40.3706 28.592 40.4211 30.924 38.1474C31.7351 37.2884 32.1913 36.379 32.4448 35.4695C32.4448 35.419 32.4448 35.419 32.4448 35.3684C32.4448 35.3179 32.4448 35.2674 32.4955 35.2169C32.5462 35.0148 32.5969 34.7621 32.5969 34.56C32.5969 34.3074 32.6476 34.0548 32.5969 33.8021C32.4955 31.7811 31.1774 29.8611 28.9975 28.2948C28.9975 28.2948 28.9469 28.2948 28.9469 28.2442C26.4121 26.4253 22.6607 25.1116 18.3516 24.7074C12.6231 24.2021 10.3925 20.8169 9.53066 18.0884C9.1758 17.179 9.02371 16.1684 9.02371 15.1579C9.02371 14.8042 9.02371 14.6527 9.02371 14.6527C9.07441 13.9453 9.1758 13.2884 9.37858 12.6821H0V30.2148C0 40.0169 9.42927 48 21.0384 48H41.7727V35.6716C40.6574 38.9558 37.5143 41.28 33.8643 41.28Z" fill="#FF4D24"></path><path d="M17.4396 6.72H36.1967C39.5426 6.72 42.2801 9.44842 42.2801 12.7832V23.6463L28.7446 9.95368C26.4633 7.62947 22.7119 7.62947 20.3799 9.90316C19.5688 10.7621 19.1125 11.6716 18.859 12.5811C18.859 12.6316 18.859 12.6316 18.859 12.6821C18.859 12.7326 18.859 12.7832 18.8084 12.8337C18.7577 13.0358 18.707 13.2884 18.707 13.4905C18.707 13.7432 18.6563 13.9958 18.707 14.2484C18.8084 16.2695 20.1264 18.1895 22.3063 19.7558C22.3063 19.7558 22.357 19.7558 22.357 19.8063C24.8918 21.6253 28.6432 22.9389 32.9523 23.3432C38.6808 23.8484 40.9114 27.2337 41.7732 29.9621C42.1281 30.8716 42.2801 31.8821 42.2801 32.8926C42.2801 33.2463 42.2801 33.3979 42.2801 33.3979C42.2294 34.1053 42.1281 34.7621 41.9253 35.3684H51.3546V17.8358C51.3039 7.98316 41.8746 0 30.2147 0H9.48047V12.3284C10.6465 9.09474 13.7895 6.72 17.4396 6.72Z" fill="#00224C"></path><path d="M69.8577 5.50714C67.2216 5.50714 65.9035 6.36609 65.9035 8.13451C65.9035 8.8924 66.2077 9.49872 66.8667 9.90293C67.5257 10.3071 69.0466 10.9135 71.4799 11.6714C73.9133 12.4292 75.5862 13.3387 76.5494 14.2987C77.5126 15.2587 78.0196 16.7745 78.0196 18.8461C78.0196 21.4229 77.2085 23.3935 75.6369 24.7577C74.0654 26.0714 71.9869 26.7787 69.4521 26.7787C67.5764 26.7787 65.2444 26.4756 62.4562 25.9198L61.1382 25.6671L61.6451 21.7766C64.8896 22.2313 67.4243 22.4335 69.148 22.4335C71.7334 22.4335 73.0008 21.3724 73.0008 19.2503C73.0008 18.4924 72.6966 17.8861 72.0883 17.4314C71.4799 16.9766 70.314 16.5219 68.5396 16.0166C65.7007 15.2082 63.7236 14.2482 62.5576 13.1366C61.3916 12.025 60.834 10.5092 60.834 8.53872C60.834 6.06293 61.5944 4.24398 63.1153 3.03135C64.6361 1.81872 66.7146 1.2124 69.3 1.2124C71.1251 1.2124 73.4063 1.46503 76.1439 1.91977L77.462 2.1724L77.0564 6.11346C73.7105 5.70925 71.2772 5.50714 69.8577 5.50714Z" fill="#00224C"></path><path d="M79.8438 6.01223V1.56592H98.094V6.01223H91.5036V26.3238H86.4848V6.01223H79.8438Z" fill="#00224C"></path><path d="M97.8418 26.3238L103.418 1.56592H113L118.576 26.3238H113.557L112.594 21.827H103.925L102.962 26.3238H97.8418ZM107.322 5.70908L104.787 17.4817H111.58L109.045 5.70908H107.322Z" fill="#00224C"></path><path d="M126.941 18.0375V26.3238H121.922V1.56592H131.554C137.384 1.56592 140.324 4.29434 140.324 9.70065C140.324 12.9343 139.107 15.3091 136.674 16.8249L140.223 26.2733H134.697L131.807 18.0375H126.941ZM134.291 12.6312C134.9 11.9238 135.153 10.9638 135.153 9.75118C135.153 8.53855 134.849 7.62908 134.241 6.92171C133.632 6.21434 132.72 5.86065 131.554 5.86065H126.941V13.7428H131.605C132.821 13.7428 133.683 13.3385 134.291 12.6312Z" fill="#00224C"></path><path d="M142.301 6.01223V1.56592H160.551V6.01223H153.961V26.3238H148.942V6.01223H142.301Z" fill="#00224C"></path><path d="M177.837 26.3238H163.744V1.56592H168.763V21.8775H177.837V26.3238Z" fill="#00224C"></path><path d="M180.98 26.3238V1.56592H185.999V26.3238H180.98Z" fill="#00224C"></path><path d="M60.3262 38.3491H63.3679C64.179 38.3491 64.838 38.5007 65.2436 38.8544C65.6491 39.2081 65.8519 39.7133 65.8519 40.4712C65.8519 40.9765 65.7505 41.4312 65.5985 41.6839C65.3957 41.987 65.1422 42.1891 64.7873 42.3912C65.6998 42.6944 66.1054 43.3512 66.1054 44.3618C66.1054 45.2207 65.9026 45.827 65.4464 46.1807C64.9901 46.5344 64.3311 46.7365 63.52 46.7365H60.3262V38.3491ZM63.3172 39.2081H61.2387V42.0881H63.4186C63.9255 42.0881 64.3311 41.987 64.5339 41.7344C64.7873 41.4818 64.8887 41.1281 64.8887 40.6228C64.8887 40.1175 64.7366 39.7639 64.4832 39.5618C64.2297 39.3596 63.8748 39.2081 63.3172 39.2081ZM63.4186 42.8965H61.2387V45.9281H63.4693C64.0269 45.9281 64.4325 45.827 64.7366 45.5744C65.0408 45.3218 65.1929 44.9175 65.1929 44.3618C65.1929 44.0586 65.1422 43.806 65.0408 43.6039C64.9394 43.4018 64.7873 43.2502 64.5846 43.1491C64.179 42.9975 63.8241 42.8965 63.4186 42.8965Z" fill="#FF4D24"></path><path d="M70.6174 44.2102C70.6174 45.4228 71.2764 46.0291 72.5945 46.0291C73.2536 46.0291 73.8112 45.8775 74.1154 45.5744C74.4702 45.2712 74.6223 44.8165 74.6223 44.2102V38.3491H75.5348V44.2102C75.5348 45.1702 75.2814 45.827 74.7744 46.2312C74.2675 46.6354 73.5577 46.8375 72.5438 46.8375C71.5299 46.8375 70.8202 46.6354 70.3639 46.2312C69.857 45.827 69.6035 45.1196 69.6035 44.2102V38.3491H70.516V44.2102H70.6174Z" fill="#FF4D24"></path><path d="M81.8723 39.0562C80.6556 39.0562 80.0473 39.511 80.0473 40.4204C80.0473 40.9257 80.1994 41.2794 80.4528 41.4815C80.757 41.6836 81.3147 41.8857 82.1765 42.0373C83.0383 42.2394 83.6466 42.492 84.0015 42.7952C84.3563 43.0983 84.5591 43.6036 84.5591 44.311C84.5591 46.0289 83.6466 46.8878 81.8723 46.8878C81.264 46.8878 80.5542 46.8373 79.6417 46.6857L79.1855 46.6352L79.2868 45.8773C80.4021 46.0289 81.2133 46.0794 81.8216 46.0794C83.0383 46.0794 83.6466 45.5236 83.6466 44.412C83.6466 43.9573 83.4945 43.6541 83.2411 43.452C82.9876 43.2499 82.4806 43.0983 81.7709 42.9468C80.8077 42.7447 80.1487 42.492 79.7431 42.1889C79.3375 41.8857 79.1348 41.3299 79.1348 40.572C79.1348 39.0562 80.0473 38.2983 81.8723 38.2983C82.4806 38.2983 83.1904 38.3489 84.0015 38.5004L84.407 38.551L84.3057 39.3594C83.1397 39.1068 82.3285 39.0562 81.8723 39.0562Z" fill="#FF4D24"></path><path d="M88.1074 46.7365V38.3491H89.0199V46.7365H88.1074Z" fill="#FF4D24"></path><path d="M93.0254 46.7365V38.3491H94.7997L98.0442 45.9281H98.2977V38.3491H99.2102V46.7365H97.4866L94.1914 39.1575H93.9379V46.7365H93.0254Z" fill="#FF4D24"></path><path d="M103.215 46.7365V38.3491H108.335V39.1575H104.127V42.0375H107.575V42.846H104.127V45.8775H108.335V46.686H103.215V46.7365Z" fill="#FF4D24"></path><path d="M114.163 39.0562C112.947 39.0562 112.338 39.511 112.338 40.4204C112.338 40.9257 112.49 41.2794 112.744 41.4815C113.048 41.6836 113.606 41.8857 114.467 42.0373C115.329 42.2394 115.938 42.492 116.292 42.7952C116.647 43.0983 116.85 43.6036 116.85 44.311C116.85 46.0289 115.938 46.8878 114.163 46.8878C113.555 46.8878 112.845 46.8373 111.933 46.6857L111.476 46.6352L111.578 45.8773C112.693 46.0289 113.504 46.0794 114.113 46.0794C115.329 46.0794 115.938 45.5236 115.938 44.412C115.938 43.9573 115.786 43.6541 115.532 43.452C115.279 43.2499 114.772 43.0983 114.062 42.9468C113.099 42.7447 112.44 42.492 112.034 42.1889C111.629 41.8857 111.426 41.3299 111.426 40.572C111.426 39.0562 112.338 38.2983 114.163 38.2983C114.772 38.2983 115.481 38.3489 116.292 38.5004L116.698 38.551L116.597 39.3594C115.431 39.1068 114.62 39.0562 114.163 39.0562Z" fill="#FF4D24"></path><path d="M122.681 39.0562C121.464 39.0562 120.856 39.511 120.856 40.4204C120.856 40.9257 121.008 41.2794 121.261 41.4815C121.566 41.6836 122.123 41.8857 122.985 42.0373C123.847 42.2394 124.455 42.492 124.81 42.7952C125.165 43.0983 125.368 43.6036 125.368 44.311C125.368 46.0289 124.455 46.8878 122.681 46.8878C122.073 46.8878 121.363 46.8373 120.45 46.6857L119.994 46.6352L120.095 45.8773C121.211 46.0289 122.022 46.0794 122.63 46.0794C123.847 46.0794 124.455 45.5236 124.455 44.412C124.455 43.9573 124.303 43.6541 124.05 43.452C123.796 43.2499 123.289 43.0983 122.579 42.9468C121.616 42.7447 120.957 42.492 120.552 42.1889C120.146 41.8857 119.943 41.3299 119.943 40.572C119.943 39.0562 120.856 38.2983 122.681 38.2983C123.289 38.2983 123.999 38.3489 124.81 38.5004L125.216 38.551L125.114 39.3594C123.948 39.1068 123.188 39.0562 122.681 39.0562Z" fill="#FF4D24"></path><path d="M132.82 46.7365L135.152 38.3491H137.18L139.512 46.7365H138.6L137.991 44.5639H134.341L133.733 46.7365H132.82ZM135.811 39.1575L134.544 43.7554H137.738L136.47 39.1575H135.811Z" fill="#FF4D24"></path><path d="M145.9 43.3007V42.4417H148.232V46.5849C147.218 46.787 146.306 46.8881 145.494 46.8881C144.278 46.8881 143.416 46.5344 142.96 45.827C142.503 45.1196 142.25 44.0586 142.25 42.5933C142.25 41.128 142.503 40.0165 142.96 39.3091C143.416 38.6017 144.278 38.248 145.494 38.248C146.255 38.248 147.015 38.3491 147.826 38.5007L148.232 38.5512L148.181 39.3091C147.167 39.1575 146.306 39.0565 145.545 39.0565C144.633 39.0565 143.974 39.3091 143.669 39.8649C143.365 40.4207 143.163 41.2796 143.163 42.5428C143.163 43.8059 143.315 44.6649 143.669 45.2207C143.974 45.7765 144.633 46.0291 145.545 46.0291C146.103 46.0291 146.711 45.9786 147.269 45.8775V43.3007H145.9Z" fill="#FF4D24"></path><path d="M152.033 46.7365V38.3491H157.153V39.1575H152.946V42.0375H156.393V42.846H152.946V45.8775H157.153V46.686H152.033V46.7365Z" fill="#FF4D24"></path><path d="M160.703 46.7365V38.3491H162.477L165.722 45.9281H165.975V38.3491H166.888V46.7365H165.164L161.869 39.1575H161.616V46.7365H160.703Z" fill="#FF4D24"></path><path d="M175.961 46.6354C175.15 46.787 174.39 46.8881 173.731 46.8881C173.072 46.8881 172.514 46.787 172.109 46.6354C171.703 46.4333 171.399 46.1807 171.145 45.7765C170.943 45.3723 170.791 44.968 170.689 44.4628C170.588 43.9575 170.537 43.3512 170.537 42.5933C170.537 41.8354 170.588 41.2291 170.689 40.7238C170.791 40.2186 170.943 39.7638 171.145 39.3596C171.348 38.9554 171.703 38.7028 172.109 38.5007C172.514 38.2986 173.021 38.248 173.68 38.248C174.339 38.248 175.1 38.3491 175.961 38.5007L175.911 39.3091C175.1 39.1575 174.339 39.107 173.731 39.107C172.818 39.107 172.261 39.3596 171.957 39.9154C171.652 40.4207 171.5 41.3302 171.5 42.6438C171.5 43.3007 171.551 43.8059 171.602 44.1596C171.652 44.5638 171.754 44.9175 171.906 45.2207C172.058 45.5238 172.261 45.7765 172.565 45.8775C172.869 45.9786 173.275 46.0796 173.883 46.0796C174.491 46.0796 175.15 46.0291 175.911 45.8775L175.961 46.6354Z" fill="#FF4D24"></path><path d="M182.146 46.7365H181.234V43.1996L178.547 38.3491H179.611L181.69 42.2902L183.768 38.3491H184.833L182.146 43.1996V46.7365Z" fill="#FF4D24"></path></svg>