<svg xmlns="http://www.w3.org/2000/svg" width="187" height="48" viewBox="0 0 187 48" fill="none"><path d="M33.8643 41.28H15.1071C11.7612 41.28 9.02371 38.5516 9.02371 35.2168V24.3537L22.5593 38.0463C24.8406 40.3705 28.592 40.421 30.924 38.1474C31.7351 37.2884 32.1913 36.3789 32.4448 35.4695C32.4448 35.4189 32.4448 35.4189 32.4448 35.3684C32.4448 35.3179 32.4448 35.2674 32.4955 35.2168C32.5462 35.0147 32.5969 34.7621 32.5969 34.56C32.5969 34.3074 32.6476 34.0547 32.5969 33.8021C32.4955 31.781 31.1774 29.861 28.9975 28.2947C28.9975 28.2947 28.9469 28.2947 28.9469 28.2442C26.4121 26.4253 22.6607 25.1116 18.3516 24.7074C12.6231 24.2021 10.3925 20.8168 9.53066 18.0884C9.1758 17.1789 9.02371 16.1684 9.02371 15.1579C9.02371 14.8042 9.02371 14.6526 9.02371 14.6526C9.07441 13.9453 9.1758 13.2884 9.37858 12.6821H0V30.2147C0 40.0168 9.42927 48 21.0384 48H41.7727V35.6716C40.6574 38.9558 37.5143 41.28 33.8643 41.28Z" fill="white"></path><path d="M17.4396 6.72H36.1967C39.5426 6.72 42.2801 9.44842 42.2801 12.7832V23.6463L28.7446 9.95368C26.4633 7.62947 22.7119 7.62947 20.3799 9.90316C19.5688 10.7621 19.1125 11.6716 18.859 12.5811C18.859 12.6316 18.859 12.6316 18.859 12.6821C18.859 12.7326 18.859 12.7832 18.8084 12.8337C18.7577 13.0358 18.707 13.2884 18.707 13.4905C18.707 13.7432 18.6563 13.9958 18.707 14.2484C18.8084 16.2695 20.1264 18.1895 22.3063 19.7558C22.3063 19.7558 22.357 19.7558 22.357 19.8063C24.8918 21.6253 28.6432 22.9389 32.9523 23.3432C38.6808 23.8484 40.9114 27.2337 41.7732 29.9621C42.1281 30.8716 42.2801 31.8821 42.2801 32.8926C42.2801 33.2463 42.2801 33.3979 42.2801 33.3979C42.2294 34.1053 42.1281 34.7621 41.9253 35.3684H51.3546V17.8358C51.3039 7.98316 41.8746 0 30.2147 0H9.48047V12.3284C10.6465 9.09474 13.7895 6.72 17.4396 6.72Z" fill="white"></path><path d="M69.8597 5.50737C67.2235 5.50737 65.9054 6.36632 65.9054 8.13474C65.9054 8.89263 66.2096 9.49895 66.8686 9.90316C67.5277 10.3074 69.0485 10.9137 71.4819 11.6716C73.9153 12.4295 75.5882 13.3389 76.5514 14.2989C77.5146 15.2589 78.0215 16.7747 78.0215 18.8463C78.0215 21.4232 77.2104 23.3937 75.6389 24.7579C74.0673 26.0716 71.9888 26.7789 69.4541 26.7789C67.5784 26.7789 65.2464 26.4758 62.4582 25.92L61.1401 25.6674L61.6471 21.7768C64.8915 22.2316 67.4263 22.4337 69.1499 22.4337C71.7354 22.4337 73.0027 21.3726 73.0027 19.2505C73.0027 18.4926 72.6986 17.8863 72.0902 17.4316C71.4819 16.9768 70.3159 16.5221 68.5416 16.0168C65.7027 15.2084 63.7256 14.2484 62.5596 13.1368C61.3936 12.0253 60.8359 10.5095 60.8359 8.53895C60.8359 6.06316 61.5964 4.24421 63.1172 3.03158C64.6381 1.81895 66.7166 1.21263 69.302 1.21263C71.127 1.21263 73.4083 1.46526 76.1458 1.92L77.4639 2.17263L77.0583 6.11368C73.7125 5.70947 71.2791 5.50737 69.8597 5.50737Z" fill="white"></path><path d="M79.8477 6.01263V1.56631H98.0979V6.01263H91.5075V26.3242H86.4887V6.01263H79.8477Z" fill="white"></path><path d="M97.8438 26.3242L103.42 1.56631H113.002L118.578 26.3242H113.559L112.596 21.8274H103.927L102.964 26.3242H97.8438ZM107.324 5.70947L104.789 17.4821H111.582L109.047 5.70947H107.324Z" fill="white"></path><path d="M126.941 18.0379V26.3242H121.922V1.56631H131.554C137.384 1.56631 140.324 4.29474 140.324 9.70105C140.324 12.9347 139.107 15.3095 136.674 16.8253L140.223 26.2737H134.697L131.807 18.0379H126.941ZM134.291 12.6316C134.9 11.9242 135.153 10.9642 135.153 9.75158C135.153 8.53895 134.849 7.62947 134.241 6.9221C133.632 6.21474 132.72 5.86105 131.554 5.86105H126.941V13.7432H131.605C132.821 13.7432 133.683 13.3389 134.291 12.6316Z" fill="white"></path><path d="M142.305 6.01263V1.56631H160.555V6.01263H153.965V26.3242H148.946V6.01263H142.305Z" fill="white"></path><path d="M177.839 26.3242H163.746V1.56631H168.765V21.8779H177.839V26.3242Z" fill="white"></path><path d="M180.984 26.3242V1.56631H186.003V26.3242H180.984Z" fill="white"></path><path d="M60.3281 38.3495H63.3698C64.1809 38.3495 64.84 38.5011 65.2455 38.8547C65.6511 39.2084 65.8539 39.7137 65.8539 40.4716C65.8539 40.9768 65.7525 41.4316 65.6004 41.6842C65.3976 41.9874 65.1442 42.1895 64.7893 42.3916C65.7018 42.6947 66.1074 43.3516 66.1074 44.3621C66.1074 45.2211 65.9046 45.8274 65.4483 46.1811C64.9921 46.5347 64.333 46.7368 63.5219 46.7368H60.3281V38.3495ZM63.3191 39.2084H61.2406V42.0884H63.4205C63.9275 42.0884 64.333 41.9874 64.5358 41.7347C64.7893 41.4821 64.8907 41.1284 64.8907 40.6232C64.8907 40.1179 64.7386 39.7642 64.4851 39.5621C64.2316 39.36 63.8768 39.2084 63.3191 39.2084ZM63.4205 42.8968H61.2406V45.9284H63.4712C64.0289 45.9284 64.4344 45.8274 64.7386 45.5747C65.0428 45.3221 65.1948 44.9179 65.1948 44.3621C65.1948 44.0589 65.1442 43.8063 65.0428 43.6042C64.9414 43.4021 64.7893 43.2505 64.5865 43.1495C64.1809 42.9979 63.8261 42.8968 63.4205 42.8968Z" fill="white"></path><path d="M70.6194 44.2105C70.6194 45.4232 71.2784 46.0295 72.5965 46.0295C73.2555 46.0295 73.8132 45.8779 74.1173 45.5747C74.4722 45.2716 74.6243 44.8168 74.6243 44.2105V38.3495H75.5368V44.2105C75.5368 45.1705 75.2833 45.8274 74.7764 46.2316C74.2694 46.6358 73.5597 46.8379 72.5458 46.8379C71.5319 46.8379 70.8221 46.6358 70.3659 46.2316C69.8589 45.8274 69.6055 45.12 69.6055 44.2105V38.3495H70.518V44.2105H70.6194Z" fill="white"></path><path d="M81.8742 39.0568C80.6576 39.0568 80.0492 39.5116 80.0492 40.4211C80.0492 40.9263 80.2013 41.28 80.4548 41.4821C80.759 41.6842 81.3166 41.8863 82.1784 42.0379C83.0402 42.24 83.6486 42.4926 84.0034 42.7958C84.3583 43.0989 84.5611 43.6042 84.5611 44.3116C84.5611 46.0295 83.6486 46.8884 81.8742 46.8884C81.2659 46.8884 80.5562 46.8379 79.6437 46.6863L79.1874 46.6358L79.2888 45.8779C80.4041 46.0295 81.2152 46.08 81.8235 46.08C83.0402 46.08 83.6486 45.5242 83.6486 44.4126C83.6486 43.9579 83.4965 43.6547 83.243 43.4526C82.9895 43.2505 82.4826 43.0989 81.7729 42.9474C80.8097 42.7453 80.1506 42.4926 79.7451 42.1895C79.3395 41.8863 79.1367 41.3305 79.1367 40.5726C79.1367 39.0568 80.0492 38.299 81.8742 38.299C82.4826 38.299 83.1923 38.3495 84.0034 38.5011L84.409 38.5516L84.3076 39.36C83.1416 39.1074 82.3305 39.0568 81.8742 39.0568Z" fill="white"></path><path d="M88.1094 46.7368V38.3495H89.0219V46.7368H88.1094Z" fill="white"></path><path d="M93.0273 46.7368V38.3495H94.8017L98.0461 45.9284H98.2996V38.3495H99.2121V46.7368H97.4885L94.1933 39.1579H93.9399V46.7368H93.0273Z" fill="white"></path><path d="M103.215 46.7368V38.3495H108.335V39.1579H104.127V42.0379H107.575V42.8463H104.127V45.8779H108.335V46.6863H103.215V46.7368Z" fill="white"></path><path d="M114.167 39.0568C112.951 39.0568 112.342 39.5116 112.342 40.4211C112.342 40.9263 112.494 41.28 112.748 41.4821C113.052 41.6842 113.61 41.8863 114.471 42.0379C115.333 42.24 115.942 42.4926 116.296 42.7958C116.651 43.0989 116.854 43.6042 116.854 44.3116C116.854 46.0295 115.942 46.8884 114.167 46.8884C113.559 46.8884 112.849 46.8379 111.937 46.6863L111.48 46.6358L111.582 45.8779C112.697 46.0295 113.508 46.08 114.117 46.08C115.333 46.08 115.942 45.5242 115.942 44.4126C115.942 43.9579 115.789 43.6547 115.536 43.4526C115.283 43.2505 114.776 43.0989 114.066 42.9474C113.103 42.7453 112.444 42.4926 112.038 42.1895C111.632 41.8863 111.43 41.3305 111.43 40.5726C111.43 39.0568 112.342 38.299 114.167 38.299C114.776 38.299 115.485 38.3495 116.296 38.5011L116.702 38.5516L116.601 39.36C115.435 39.1074 114.623 39.0568 114.167 39.0568Z" fill="white"></path><path d="M122.683 39.0568C121.466 39.0568 120.858 39.5116 120.858 40.4211C120.858 40.9263 121.01 41.28 121.263 41.4821C121.568 41.6842 122.125 41.8863 122.987 42.0379C123.849 42.24 124.457 42.4926 124.812 42.7958C125.167 43.0989 125.37 43.6042 125.37 44.3116C125.37 46.0295 124.457 46.8884 122.683 46.8884C122.075 46.8884 121.365 46.8379 120.452 46.6863L119.996 46.6358L120.097 45.8779C121.213 46.0295 122.024 46.08 122.632 46.08C123.849 46.08 124.457 45.5242 124.457 44.4126C124.457 43.9579 124.305 43.6547 124.052 43.4526C123.798 43.2505 123.291 43.0989 122.581 42.9474C121.618 42.7453 120.959 42.4926 120.554 42.1895C120.148 41.8863 119.945 41.3305 119.945 40.5726C119.945 39.0568 120.858 38.299 122.683 38.299C123.291 38.299 124.001 38.3495 124.812 38.5011L125.218 38.5516L125.116 39.36C123.95 39.1074 123.19 39.0568 122.683 39.0568Z" fill="white"></path><path d="M132.82 46.7368L135.152 38.3495H137.18L139.512 46.7368H138.6L137.991 44.5642H134.341L133.733 46.7368H132.82ZM135.811 39.1579L134.544 43.7558H137.738L136.47 39.1579H135.811Z" fill="white"></path><path d="M145.9 43.301V42.4421H148.232V46.5853C147.218 46.7874 146.306 46.8884 145.494 46.8884C144.278 46.8884 143.416 46.5347 142.96 45.8274C142.503 45.12 142.25 44.0589 142.25 42.5937C142.25 41.1284 142.503 40.0168 142.96 39.3095C143.416 38.6021 144.278 38.2484 145.494 38.2484C146.255 38.2484 147.015 38.3495 147.826 38.501L148.232 38.5516L148.181 39.3095C147.167 39.1579 146.306 39.0568 145.545 39.0568C144.633 39.0568 143.974 39.3095 143.669 39.8653C143.365 40.421 143.163 41.28 143.163 42.5431C143.163 43.8063 143.315 44.6653 143.669 45.221C143.974 45.7768 144.633 46.0295 145.545 46.0295C146.103 46.0295 146.711 45.9789 147.269 45.8779V43.301H145.9Z" fill="white"></path><path d="M152.035 46.7368V38.3495H157.155V39.1579H152.948V42.0379H156.395V42.8463H152.948V45.8779H157.155V46.6863H152.035V46.7368Z" fill="white"></path><path d="M160.703 46.7368V38.3495H162.477L165.722 45.9284H165.975V38.3495H166.888V46.7368H165.164L161.869 39.1579H161.616V46.7368H160.703Z" fill="white"></path><path d="M175.963 46.6358C175.152 46.7874 174.392 46.8884 173.733 46.8884C173.074 46.8884 172.516 46.7874 172.111 46.6358C171.705 46.4337 171.401 46.181 171.147 45.7768C170.945 45.3726 170.793 44.9684 170.691 44.4632C170.59 43.9579 170.539 43.3516 170.539 42.5937C170.539 41.8358 170.59 41.2295 170.691 40.7242C170.793 40.2189 170.945 39.7642 171.147 39.36C171.35 38.9558 171.705 38.7031 172.111 38.501C172.516 38.2989 173.023 38.2484 173.682 38.2484C174.341 38.2484 175.102 38.3495 175.963 38.501L175.913 39.3095C175.102 39.1579 174.341 39.1074 173.733 39.1074C172.82 39.1074 172.263 39.36 171.959 39.9158C171.654 40.421 171.502 41.3305 171.502 42.6442C171.502 43.301 171.553 43.8063 171.604 44.16C171.654 44.5642 171.756 44.9179 171.908 45.221C172.06 45.5242 172.263 45.7768 172.567 45.8779C172.871 45.9789 173.277 46.08 173.885 46.08C174.493 46.08 175.152 46.0295 175.913 45.8779L175.963 46.6358Z" fill="white"></path><path d="M182.15 46.7368H181.238V43.2L178.551 38.3495H179.615L181.694 42.2905L183.772 38.3495H184.837L182.15 43.2V46.7368Z" fill="white"></path></svg>